HIERARCHY
ROOT Hips
{
	OFFSET 0.000000 0.000000 0.000000
	CHANNELS 6 Xposition Yposition Zposition Xrotation Yrotation Zrotation
	JOINT LeftUpLeg_virtual
	{
		OFFSET 0.000000 0.000000 0.000000
		CHANNELS 3 Xrotation Yrotation Zrotation
		JOINT LeftUpLeg
		{
			OFFSET 13.026900 -6.336304 -1.092800
			CHANNELS 3 Xrotation Yrotation Zrotation
			JOINT LeftLeg
			{
				OFFSET 0.524474 -46.096886 9.782700
				CHANNELS 3 Xrotation Yrotation Zrotation
				JOINT LeftFoot
				{
					OFFSET -0.524474 -53.427422 -12.948200
					CHANNELS 3 Xrotation Yrotation Zrotation
					JOINT LeftToeBase
					{
						OFFSET 0.192200 -14.009700 16.364100
						CHANNELS 3 Xrotation Yrotation Zrotation
						JOINT LeftToe_End
						{
							OFFSET -1.784700 -0.561700 9.474800
							CHANNELS 3 Xrotation Yrotation Zrotation
							End Site
							{
								OFFSET 0 0 0
							}
						}
					}
				}
			}
		}
	}
	JOINT RightUpLeg_virtual
	{
		OFFSET 0.000000 0.000000 0.000000
		CHANNELS 3 Xrotation Yrotation Zrotation
		JOINT RightUpLeg
		{
			OFFSET -12.883000 -6.336304 -1.092800
			CHANNELS 3 Xrotation Yrotation Zrotation
			JOINT RightLeg
			{
				OFFSET -0.524587 -46.096825 9.782800
				CHANNELS 3 Xrotation Yrotation Zrotation
				JOINT RightFoot
				{
					OFFSET 0.524587 -53.427383 -12.948300
					CHANNELS 3 Xrotation Yrotation Zrotation
					JOINT RightToeBase
					{
						OFFSET -0.192200 -14.009700 16.364100
						CHANNELS 3 Xrotation Yrotation Zrotation
						JOINT RightToe_End
						{
							OFFSET 1.784700 -0.561700 9.474800
							CHANNELS 3 Xrotation Yrotation Zrotation
							End Site
							{
								OFFSET 0 0 0
							}
						}
					}
				}
			}
		}
	}
	JOINT Spine_virtual
	{
		OFFSET 0.000000 0.000000 0.000000
		CHANNELS 3 Xrotation Yrotation Zrotation
		JOINT Spine
		{
			OFFSET 0.072000 7.257294 -0.789700
			CHANNELS 3 Xrotation Yrotation Zrotation
			JOINT Spine1
			{
				OFFSET 0.000000 12.508769 -0.658067
				CHANNELS 3 Xrotation Yrotation Zrotation
				JOINT Spine1_split
				{
					OFFSET 0.000000 12.508769 -0.658067
					CHANNELS 3 Xrotation Yrotation Zrotation
					JOINT Spine2
					{
						OFFSET 0.000000 12.508769 -0.658067
						CHANNELS 3 Xrotation Yrotation Zrotation
						JOINT Neck_virtual
						{
							OFFSET 0.000000 0.000000 0.000000
							CHANNELS 3 Xrotation Yrotation Zrotation
							JOINT Neck
							{
								OFFSET 0.000000 14.033295 7.520400
								CHANNELS 3 Xrotation Yrotation Zrotation
								JOINT Head
								{
									OFFSET 0.000000 8.198502 5.703100
									CHANNELS 3 Xrotation Yrotation Zrotation
									JOINT HeadTop_End
									{
										OFFSET 0.000000 17.760803 13.332701
										CHANNELS 3 Xrotation Yrotation Zrotation
										End Site
										{
											OFFSET 0 0 0
										}
									}
								}
							}
						}
						JOINT LeftShoulder_virtual
						{
							OFFSET 0.000000 0.000000 0.000000
							CHANNELS 3 Xrotation Yrotation Zrotation
							JOINT LeftShoulder
							{
								OFFSET 6.292450 5.785301 -0.669000
								CHANNELS 3 Xrotation Yrotation Zrotation
								JOINT LeftShoulder_split
								{
									OFFSET 6.292450 5.785301 -0.669000
									CHANNELS 3 Xrotation Yrotation Zrotation
									JOINT LeftArm
									{
										OFFSET 13.907140 -6.093903 1.965100
										CHANNELS 3 Xrotation Yrotation Zrotation
										JOINT LeftForeArm
										{
											OFFSET 34.140198 0.000000 0.000000
											CHANNELS 3 Xrotation Yrotation Zrotation
											JOINT LeftHand
											{
												OFFSET 40.960209 0.000000 0.000000
												CHANNELS 3 Xrotation Yrotation Zrotation
												End Site
												{
													OFFSET 0 0 0
												}
											}
										}
									}
								}
							}
						}
						JOINT RightShoulder_virtual
						{
							OFFSET 0.000000 0.000000 0.000000
							CHANNELS 3 Xrotation Yrotation Zrotation
							JOINT RightShoulder
							{
								OFFSET -6.292450 5.785301 -0.669000
								CHANNELS 3 Xrotation Yrotation Zrotation
								JOINT RightShoulder_split
								{
									OFFSET -6.292450 5.785301 -0.669000
									CHANNELS 3 Xrotation Yrotation Zrotation
									JOINT RightArm
									{
										OFFSET -13.907140 -6.093903 1.965100
										CHANNELS 3 Xrotation Yrotation Zrotation
										JOINT RightForeArm
										{
											OFFSET -34.140198 0.000000 0.000000
											CHANNELS 3 Xrotation Yrotation Zrotation
											JOINT RightHand
											{
												OFFSET -40.960209 0.000000 0.000000
												CHANNELS 3 Xrotation Yrotation Zrotation
												End Site
												{
													OFFSET 0 0 0
												}
											}
										}
									}
								}
							}
						}
					}
				}
			}
		}
	}
}
MOTION
Frames: 6
Frame Time: 0.03333333
240.100357 31.469177 -44.562122 0.000000 0.000000 0.000000 -126.407540 -25.034091 49.079660 -75.711827 11.272671 4.050241 115.507269 -2.595641 -3.343578 -6.035891 -3.757993 -5.095478 2.062826 1.449618 -1.075911 0.000000 0.000000 0.000000 -126.407540 -25.034091 49.079660 -107.603155 -8.429709 2.958540 83.728509 -2.058685 1.888304 -5.054624 2.272632 15.774983 -0.012199 -0.109721 0.262103 0.000000 0.000000 0.000000 -126.407540 -25.034091 49.079660 12.034630 2.317616 3.251200 24.200999 5.707154 2.256767 0.000000 0.000000 0.000000 0.000000 0.000000 0.000000 24.200986 5.707166 2.256766 56.768110 -4.708991 -18.365636 -27.541951 -9.260044 20.113295 0.000000 0.000000 0.000000 24.200986 5.707166 2.256766 0.826489 4.176647 27.061194 0.000000 0.000000 0.000000 -21.500734 -16.600715 -7.566946 -179.751468 -71.255238 -179.765962 0.000000 0.000000 0.000000 24.200986 5.707166 2.256766 2.759755 8.250638 -10.588923 0.000000 0.000000 0.000000 -57.649051 -5.834127 42.145371 -179.941416 60.236668 179.933493 0.000000 0.000000 0.000000 
246.846527 25.223854 -45.708790 0.000000 0.000000 0.000000 -126.120700 -14.080864 58.791311 -64.803428 8.824578 1.451625 115.251929 -2.585300 -3.340283 -7.583905 -5.388755 -8.774667 3.049598 1.003069 -0.719904 0.000000 0.000000 0.000000 -126.120700 -14.080864 58.791311 -99.408014 -9.531534 1.595974 84.113882 -1.771352 1.958802 -7.240206 1.540087 13.410975 -0.012209 -0.109710 0.262095 0.000000 0.000000 0.000000 -126.120700 -14.080864 58.791311 11.992980 2.072741 3.661076 24.076796 6.263975 3.298516 0.000000 0.000000 0.000000 0.000000 0.000000 0.000000 24.076781 6.263981 3.298496 58.211838 -3.060416 -17.835292 -23.111420 -7.490910 22.712636 0.000000 0.000000 0.000000 24.076781 6.263981 3.298496 1.106687 2.229524 21.865693 0.000000 0.000000 0.000000 -8.044695 -21.912744 0.331397 -179.495964 -79.484441 -179.516510 0.000000 0.000000 0.000000 24.076781 6.263981 3.298496 3.006496 6.979988 -13.209516 0.000000 0.000000 0.000000 -24.883235 -9.196747 51.059332 -179.855779 71.346517 179.867650 0.000000 0.000000 0.000000 
253.452759 20.190811 -46.935520 0.000000 0.000000 0.000000 -127.688597 -2.042312 69.635022 -60.181500 8.047376 0.314375 113.931428 -3.153623 -3.485138 -3.869326 -0.000139 -5.649585 -2.941583 -0.775940 0.547678 0.000000 0.000000 0.000000 -127.688597 -2.042312 69.635022 -94.297981 -6.972716 -1.172487 83.334899 -1.539586 2.002568 -8.617994 1.890210 12.308770 -0.012201 -0.109708 0.262093 0.000000 0.000000 0.000000 -127.688597 -2.042312 69.635022 11.567391 1.931734 3.860335 23.202436 6.009117 3.780212 0.000000 0.000000 0.000000 0.000000 0.000000 0.000000 23.202426 6.009121 3.780220 59.079763 -1.919148 -15.677910 -22.416054 -6.248912 21.959687 0.000000 0.000000 0.000000 23.202426 6.009121 3.780220 1.507317 -0.163538 17.453271 0.000000 0.000000 0.000000 3.550720 -20.408023 2.406280 -179.445899 -82.283979 -179.474367 0.000000 0.000000 0.000000 23.202426 6.009121 3.780220 0.825814 6.417765 -5.156973 0.000000 0.000000 0.000000 -13.761727 2.862439 43.332448 -0.079079 78.665058 0.117437 0.000000 0.000000 0.000000 
258.755188 19.429878 -48.115498 0.000000 0.000000 0.000000 -130.837246 10.011782 81.253372 -66.215399 18.137076 2.855766 110.371779 -0.700124 -2.986813 9.276676 11.288326 12.307274 -3.864908 -1.356084 0.936678 0.000000 0.000000 0.000000 -130.837246 10.011782 81.253372 -91.023882 -3.065143 -2.255047 82.914071 -1.309308 2.047371 -10.382064 2.883168 12.257047 -0.012193 -0.109720 0.262113 0.000000 0.000000 0.000000 -130.837246 10.011782 81.253372 10.965146 2.286696 3.665526 22.027382 5.656535 3.235588 0.000000 0.000000 0.000000 0.000000 0.000000 0.000000 22.027360 5.656556 3.235583 60.269979 -2.313300 -14.397223 -27.160790 -7.796237 21.836207 0.000000 0.000000 0.000000 22.027360 5.656556 3.235583 1.710719 -2.274078 13.636466 0.000000 0.000000 0.000000 15.758976 -23.274114 -5.022790 -3.282333 -89.562549 -3.314196 0.000000 0.000000 0.000000 22.027360 5.656556 3.235583 -1.165715 6.257475 1.833316 0.000000 0.000000 0.000000 -5.033710 6.051724 32.557753 0.007232 66.069431 0.018570 0.000000 0.000000 0.000000 
263.627869 19.395317 -48.621494 0.000000 0.000000 0.000000 -136.614602 20.120392 93.015750 -75.970978 29.503453 12.723760 110.242177 0.679074 -2.663187 7.094101 14.397190 19.985156 -4.527531 -1.924169 1.315508 0.000000 0.000000 0.000000 -136.614602 20.120392 93.015750 -88.636294 2.277149 -2.280541 80.495234 -1.194393 2.032125 -9.056965 3.260441 14.250747 -0.012223 -0.109725 0.262122 0.000000 0.000000 0.000000 -136.614602 20.120392 93.015750 10.687341 3.014668 3.277182 21.522621 5.512687 2.337337 0.000000 0.000000 0.000000 0.000000 0.000000 0.000000 21.522613 5.512705 2.337344 60.185633 -3.260754 -12.883901 -33.018296 -11.310649 23.383972 0.000000 0.000000 0.000000 21.522613 5.512705 2.337344 1.497874 -4.521682 8.152492 0.000000 0.000000 0.000000 21.699972 -20.999128 -12.200649 -0.158376 -87.714491 -0.185946 0.000000 0.000000 0.000000 21.522613 5.512705 2.337344 -1.864388 6.542015 4.453412 0.000000 0.000000 0.000000 -5.383540 2.863486 34.629896 0.013960 58.758280 -0.000080 0.000000 0.000000 0.000000 
269.625336 21.821457 -48.078510 0.000000 0.000000 0.000000 -145.864468 27.110097 104.953964 -83.872681 37.137467 22.446186 114.740280 -1.324970 -3.093191 3.523160 4.156323 22.852889 -4.971080 -2.450665 1.668464 0.000000 0.000000 0.000000 -145.864468 27.110097 104.953964 -87.819519 5.128088 -1.975652 79.508689 -1.199400 2.007580 -7.219717 2.333844 13.485247 -0.012185 -0.109720 0.262086 0.000000 0.000000 0.000000 -145.864468 27.110097 104.953964 10.868417 3.439868 3.223128 21.899221 5.667372 2.278116 0.000000 0.000000 0.000000 0.000000 0.000000 0.000000 21.899221 5.667394 2.278117 56.522725 -3.528135 -9.093207 -36.570790 -14.139689 23.837003 0.000000 0.000000 0.000000 21.899221 5.667394 2.278117 0.758074 -7.845570 -0.226163 0.000000 0.000000 0.000000 21.273037 -12.717213 -11.997371 -0.070564 -82.194578 -0.103392 0.000000 0.000000 0.000000 21.899221 5.667394 2.278117 -1.287955 6.758707 2.485867 0.000000 0.000000 0.000000 -18.515560 -1.782844 42.608219 0.014656 43.772169 0.008598 0.000000 0.000000 0.000000 
